<svg xmlns="http://www.w3.org/2000/svg" xmlns:xlink="http://www.w3.org/1999/xlink" width="1920.1829833984375" height="1075.635986328125" style=""><rect id="backgroundrect" width="100%" height="100%" x="0" y="0" fill="none" stroke="none"/>
  <defs>
    <linearGradient id="linear-gradient" x1="0.5" x2="0.5" y2="1" gradientUnits="objectBoundingBox">
      <stop offset="0" stop-color="#361cc1"/>
      <stop offset="1" stop-color="#2e82ef"/>
    </linearGradient>
    <clipPath id="clip-path">
      <path id="Path_199" data-name="Path 199" d="M-0.03099999999994907,607.5160000000001 s95.269,204.193 401.21,161.147 s419.656,-32.1 544.188,96.892 s343.977,107.54 572.909,67.066 s360.19,68.158 401.79,142.968 c0.04100000000000001,-2.4 -0.07400000000000001,-1075.621 -0.07400000000000001,-1075.621 l-1920,0.011000000000000003 z" fill="url(#linear-gradient)"/>
    </clipPath>
  </defs>
  
<g class="currentLayer" style=""><title>Layer 1</title><g id="Group_112" data-name="Group 112" class="selected" fill="#fed7aa" fill-opacity="1">
    <path id="Path_195" data-name="Path 195" d="M-0.08899999999350001,546.8403004797184 s100.50315007448197,217.20590526628493 401.49822591638565,173.3318404405713 s442.38998852062224,8.669443514883518 538.0215928959847,104.0487111876607 s352.3474520847798,85.38999032217264 581.4101727802753,47.41082120168209 S1884.2715103614396,909.465099461981 1921.4926013090676,970.698871741482 c0.016011653900146493,0.014483773231506354 -0.373271681547165,-973.6798026104568 -0.373271681547165,-973.6798026104568 l-1921.1642975792886,-0.024441367328166975 z" opacity="0.11" fill="#fed7aa" fill-opacity="1"/>
    <path id="Path_194" data-name="Path 194" d="M-0.030957754605362493,546.9778963254178 s95.33839096331597,184.842819216311 401.50222882986066,145.8760378085971 s419.96166431999205,-29.058070045709613 544.5843695383072,87.71010974669456 s344.2275421006679,97.34906083226204 573.3262890174389,60.71054597151279 s360.45235114336015,61.699063494563106 402.08265128374103,129.41975571012495 c0.04102986311912538,-2.172565984725952 -0.07405389928817752,-973.6906654403807 -0.07405389928817752,-973.6906654403807 l-1921.3984680175781,0.009957594096660619 z" fill="#fed7aa" fill-opacity="1"/>
    <g id="Mask_Group_6" data-name="Mask Group 6" clip-path="url(#clip-path)" fill="#fed7aa" fill-opacity="1">
      <path id="Path_4" data-name="Path 4" d="M25.650734372860796,619.5642176296435 S200.01964680219356,264.6701326096973 843.6791270327634,388.70011420604794 s870.0482547247409,70.12590380781889 1056.9302746770381,-420.01312946879864 " fill="#fed7aa" stroke="#361cc1" stroke-width="128" opacity="0.14" fill-opacity="1"/>
    </g>
  </g></g></svg>